<?xml version="1.0" encoding="UTF-8"?>
<svg id="Capa_1" xmlns="http://www.w3.org/2000/svg" version="1.1" viewBox="0 0 311 318">
  <!-- Generator: Adobe Illustrator 29.3.1, SVG Export Plug-In . SVG Version: 2.1.0 Build 151)  -->
  <defs>
    <style>
      .st0 {
        fill: #2563eb;
      }
    </style>
  </defs>
  <path class="st0" d="M149.9,23.1c-49.4,6.4-92.3,40-110.9,87.2-16.7,42.1-9.5,94.3,18,130.9,22.9,30.5,55.9,50,91.4,54.1,9.9,1.1,35.1.6,41.7-.8,3.2-.7,6.3-1.3,6.8-1.5,4.6-.9,19.2-5.7,24.3-7.8,17-7.2,39.1-24.7,48-38.1,3.1-4.6,3.3-5.5,2.9-10.8-.4-4.7-1.2-6.6-4.1-10.1-3.9-4.8-10.6-8.6-14.9-8.6s-9.2,2.7-19.3,12.6c-10.6,10.5-16.4,14.5-29.4,20.1-30.7,13.2-70.5,8-97.9-13-11.7-9-14.5-13.4-7.7-12.4,7.8,1.1,29.2-3.2,48.6-9.7,7.1-2.4,8-2.5,15.5-1.4,13.3,1.9,26.4-1.7,39-10.7,7.9-5.6,13.7-11.9,16.6-17.7,1.9-3.6,3.6-5.3,7.4-7.3,19.5-10.2,45.7-31.8,52.1-43s4-14.8.8-19.2c-4.8-6.7-15.6-9.2-31.9-7.4-9.6,1.1-25.3,4.6-26.7,5.9-1,1,4.2,9.2,5.8,9.2s5.6-.9,10.7-2.1c11.5-2.6,23-2.9,27.5-.5,2.6,1.4,3.2,2.2,3.2,5,0,11-30.9,35-70.7,54.9-40.2,20.2-78.8,32.7-100.5,32.7s-17-3.6-12.3-11.6c2.6-4.4,11.5-13.1,17.7-17.2,2.1-1.3,3.8-2.8,3.8-3.1s-.8-3-1.8-5.9l-1.9-5.3-6.4,4.7c-3.5,2.5-9.6,7.8-13.6,11.7l-7.2,7.1-1.1-3c-4.3-11.3-6-30.8-3.9-44.9.7-5,1.4-9.2,1.4-9.5.1-.3.5-1.9.9-3.5,3.7-14.8,15.2-34.1,26.6-44.9,14.9-14,29.8-21.4,53.3-26.6,14.7-3.2,35-1.5,50.7,4.2,7.7,2.9,20.5,10.6,28,16.9,7.9,6.7,8.8,7.2,14.5,8.4,6.7,1.3,19-5.8,22.5-13,3.8-7.8,1.9-13.4-7.6-22.7-15.5-15.2-39.5-26.9-64.1-31.3-12.5-2.3-32.6-2.7-45.8-1Z"/>
  <path class="st0" d="M160.9,100.8c-12.2,1.3-24,7.2-33,16.2-18.1,18.4-21.6,46.2-8.4,68.1,6,10.1,12.6,12.6,23.6,8.9,14-4.7,70.7-31.2,77-36l3.5-2.7-.5-7.6c-.3-5.2-1.3-9.4-3.1-13.4-10.4-22.9-34.1-36.3-59.1-33.5Z"/>
</svg>